<?xml version="1.0" encoding="utf-8"?>
<svg viewBox="0 0 500 500" xmlns="http://www.w3.org/2000/svg">
    <g transform="matrix(0.076618, 0, 0, -0.082974, 55.103851, 430.968872)" fill="#000000" stroke="none" style="">
        <path d="M172 5100 c-13 -13 -22 -33 -22 -51 0 -46 53 -172 172 -409 136 -272 147 -320 187 -801 23 -275 36 -347 97 -529 48 -143 72 -180 120 -180 29 0 74 41 74 67 0 10 -16 60 -36 112 -59 158 -82 275 -104 531 -11 129 -22 246 -24 260 -4 23 -2 23 26 -10 212 -246 396 -367 582 -386 72 -7 568 21 741 41 247 30 411 91 516 194 l59 57 59 -57 c132 -128 307 -180 704 -209 141 -11 160 -10 182 4 44 29 45 93 2 121 -14 8 -80 18 -182 25 -281 21 -447 57 -545 120 -61 39 -85 66 -118 131 -20 40 -37 59 -65 72 -36 18 -38 18 -75 0 -27 -13 -43 -31 -60 -66 -30 -64 -95 -127 -163 -160 -123 -61 -288 -85 -743 -113 -229 -14 -289 -14 -335 -4 -242 54 -516 352 -755 824 -39 77 -86 174 -103 214 l-32 72 2229 0 2229 0 -21 -47 c-139 -324 -334 -641 -506 -823 -159 -169 -304 -250 -453 -250 -66 0 -99 -26 -99 -77 0 -129 298 -81 509 81 52 40 169 156 239 236 23 26 30 30 27 15 -3 -11 -14 -128 -25 -260 -26 -311 -49 -406 -179 -728 -69 -173 -125 -336 -147 -432 -59 -256 33 -1127 171 -1604 35 -124 143 -367 172 -389 26 -19 77 -15 98 8 29 32 22 67 -43 205 -80 172 -123 328 -176 645 -51 301 -81 558 -91 800 -11 242 9 335 146 686 157 404 171 460 200 803 40 484 51 535 173 772 108 210 186 394 186 438 0 18 -9 38 -22 51 l-22 20 -2366 0 -2366 0 -22 -20z"
              style="fill: rgb(161, 163, 102);"/>
        <path d="M2504 3549 c-18 -20 -19 -43 -22 -349 l-3 -328 -132 -46 c-259 -90 -461 -137 -593 -139 -71 -1 -86 2 -126 26 -108 63 -263 307 -373 587 -39 101 -62 130 -102 130 -31 0 -73 -42 -73 -73 0 -32 57 -173 130 -323 114 -234 252 -409 366 -464 124 -61 368 -33 723 82 85 27 160 52 168 55 11 4 13 -69 13 -421 l0 -427 -67 -30 c-204 -93 -395 -149 -504 -149 -67 0 -70 1 -108 39 -79 79 -184 290 -261 526 -44 135 -70 175 -113 175 -13 0 -32 -7 -44 -15 -39 -27 -37 -58 16 -213 121 -357 248 -574 373 -636 99 -49 258 -32 493 52 61 22 132 49 158 61 27 11 51 21 53 21 2 0 4 -191 4 -423 l0 -424 -127 -60 c-160 -76 -275 -113 -353 -113 -58 0 -58 0 -109 55 -59 66 -152 247 -206 405 -37 109 -59 140 -102 140 -31 0 -73 -42 -73 -74 0 -65 140 -389 218 -502 47 -71 120 -140 167 -160 48 -20 158 -17 247 6 88 23 266 96 355 146 l63 35 63 -35 c92 -51 267 -123 354 -146 90 -23 199 -26 248 -6 47 20 120 89 167 160 78 113 218 437 218 502 0 31 -42 74 -72 74 -45 0 -64 -26 -102 -137 -57 -164 -148 -343 -207 -408 -51 -55 -51 -55 -109 -55 -78 0 -193 37 -352 113 l-128 60 0 425 c0 335 3 423 13 419 283 -116 393 -148 529 -154 102 -5 111 -4 163 21 127 63 254 277 376 638 53 155 55 186 16 213 -12 8 -31 15 -44 15 -43 0 -69 -40 -113 -175 -76 -235 -182 -447 -261 -526 -38 -38 -41 -39 -111 -39 -107 0 -288 54 -510 153 l-58 26 0 425 c0 235 1 426 3 426 2 0 57 -18 122 -40 149 -51 317 -96 427 -115 110 -20 261 -20 316 -1 125 44 248 184 377 428 65 124 155 341 155 375 0 31 -42 73 -73 73 -40 0 -63 -29 -102 -130 -77 -196 -190 -399 -281 -507 -82 -96 -144 -118 -284 -102 -147 17 -307 59 -542 141 l-117 42 -3 327 c-3 305 -4 328 -22 348 -13 14 -31 21 -56 21 -25 0 -43 -7 -56 -21z"
              style="fill: rgb(161, 163, 102);"/>
        <path d="M790 2960 c-25 -25 -25 -62 0 -136 58 -167 64 -209 63 -409 -1 -266 -45 -651 -113 -1000 -48 -241 -85 -365 -149 -503 -137 -293 -214 -551 -237 -789 -6 -68 -5 -73 19 -97 l26 -26 2161 0 2161 0 25 26 c25 24 26 29 19 97 -8 92 -51 309 -70 353 -22 53 -92 61 -128 13 -19 -27 -19 -27 6 -135 14 -60 29 -130 33 -156 l6 -48 -2052 0 -2052 0 7 53 c24 171 93 385 203 628 39 85 79 186 91 224 70 241 138 629 177 1010 20 203 23 518 5 600 -25 114 -82 280 -103 298 -27 23 -73 22 -98 -3z"
              style="fill: rgb(161, 163, 102);"/>
    </g>
</svg>