<?xml version="1.0" encoding="UTF-8"?>
<svg xmlns:xlink="http://www.w3.org/1999/xlink" width="700pt" height="700pt" version="1.1" viewBox="0 0 700 700"
     xmlns="http://www.w3.org/2000/svg">
    <defs>
        <symbol id="v" overflow="visible">
            <path d="m3.6562-0.21875c-0.1875 0.09375-0.38672 0.16797-0.59375 0.21875-0.19922 0.050781-0.40625 0.078125-0.625 0.078125-0.66797 0-1.1992-0.17969-1.5938-0.54688-0.38672-0.375-0.57812-0.87891-0.57812-1.5156 0-0.64453 0.19141-1.1484 0.57812-1.5156 0.39453-0.375 0.92578-0.5625 1.5938-0.5625 0.21875 0 0.42578 0.027344 0.625 0.078125 0.20703 0.054687 0.40625 0.125 0.59375 0.21875v0.82812c-0.1875-0.125-0.375-0.21875-0.5625-0.28125-0.17969-0.0625-0.37109-0.09375-0.57812-0.09375-0.36719 0-0.65625 0.12109-0.875 0.35938-0.21094 0.23047-0.3125 0.55469-0.3125 0.96875 0 0.40625 0.10156 0.73047 0.3125 0.96875 0.21875 0.23047 0.50781 0.34375 0.875 0.34375 0.20703 0 0.39844-0.023437 0.57812-0.078125 0.1875-0.0625 0.375-0.16016 0.5625-0.29688z"/>
        </symbol>
        <symbol id="d" overflow="visible">
            <path d="m2.6875-2.1719c-0.085938-0.039063-0.16797-0.070313-0.25-0.09375-0.085938-0.019531-0.16797-0.03125-0.25-0.03125-0.25 0-0.44531 0.085937-0.57812 0.25-0.125 0.15625-0.1875 0.38281-0.1875 0.67188v1.375h-0.96875v-2.9844h0.96875v0.48438c0.11328-0.19531 0.25-0.33594 0.40625-0.42188 0.16406-0.09375 0.35938-0.14062 0.57812-0.14062h0.10938c0.039063 0 0.09375 0.007812 0.15625 0.015625z"/>
        </symbol>
        <symbol id="a" overflow="visible">
            <path d="m3.4375-1.5v0.26562h-2.2344c0.03125 0.23047 0.11328 0.40234 0.25 0.51562 0.13281 0.10547 0.32812 0.15625 0.57812 0.15625 0.20703 0 0.41406-0.023438 0.625-0.078125 0.20703-0.0625 0.42188-0.15625 0.64062-0.28125v0.73438c-0.21875 0.09375-0.44531 0.16406-0.67188 0.20312-0.23047 0.039062-0.45312 0.0625-0.67188 0.0625-0.54297 0-0.96484-0.13281-1.2656-0.40625-0.30469-0.28125-0.45312-0.67188-0.45312-1.1719 0-0.47656 0.14453-0.85938 0.4375-1.1406 0.30078-0.28125 0.70703-0.42188 1.2188-0.42188 0.46875 0 0.84375 0.14062 1.125 0.42188s0.42188 0.66406 0.42188 1.1406zm-0.96875-0.32812c0-0.17578-0.058594-0.31641-0.17188-0.42188-0.10547-0.11328-0.24219-0.17188-0.40625-0.17188-0.1875 0-0.33984 0.054687-0.45312 0.15625-0.11719 0.10547-0.1875 0.25-0.21875 0.4375z"/>
        </symbol>
        <symbol id="e" overflow="visible">
            <path d="m1.7969-1.3438c-0.19922 0-0.35156 0.039062-0.45312 0.10938-0.09375 0.0625-0.14062 0.16406-0.14062 0.29688 0 0.11719 0.035156 0.21094 0.10938 0.28125 0.082031 0.0625 0.19531 0.09375 0.34375 0.09375 0.17578 0 0.32812-0.0625 0.45312-0.1875s0.1875-0.28516 0.1875-0.48438v-0.10938zm1.4688-0.35938v1.7031h-0.96875v-0.4375c-0.125 0.17969-0.27344 0.30859-0.4375 0.39062-0.15625 0.082031-0.35156 0.125-0.57812 0.125-0.3125 0-0.57031-0.085938-0.76562-0.26562-0.1875-0.1875-0.28125-0.42188-0.28125-0.70312 0-0.35156 0.11719-0.61328 0.35938-0.78125 0.23828-0.16406 0.61719-0.25 1.1406-0.25h0.5625v-0.0625c0-0.15625-0.0625-0.26562-0.1875-0.32812-0.11719-0.070312-0.29688-0.10938-0.54688-0.10938-0.21094 0-0.40234 0.023437-0.57812 0.0625-0.17969 0.042969-0.33984 0.10156-0.48438 0.17188v-0.71875c0.19531-0.050781 0.39844-0.085938 0.60938-0.10938 0.20703-0.03125 0.41406-0.046875 0.625-0.046875 0.53906 0 0.92969 0.10938 1.1719 0.32812 0.23828 0.21094 0.35938 0.55469 0.35938 1.0312z"/>
        </symbol>
        <symbol id="c" overflow="visible">
            <path d="m1.5-3.8438v0.85938h0.98438v0.67188h-0.98438v1.2812c0 0.13672 0.023438 0.23047 0.078125 0.28125 0.0625 0.042969 0.17578 0.0625 0.34375 0.0625h0.48438v0.6875h-0.8125c-0.38672 0-0.65625-0.078125-0.8125-0.23438s-0.23438-0.42188-0.23438-0.79688v-1.2812h-0.46875v-0.67188h0.46875v-0.85938z"/>
        </symbol>
        <symbol id="k" overflow="visible">
            <path d="m2.5-2.5469v-1.6094h0.95312v4.1562h-0.95312v-0.4375c-0.13672 0.17969-0.28125 0.30859-0.4375 0.39062-0.15625 0.082031-0.33984 0.125-0.54688 0.125-0.375 0-0.68359-0.14453-0.92188-0.4375-0.23047-0.28906-0.34375-0.67188-0.34375-1.1406 0-0.45703 0.11328-0.83203 0.34375-1.125 0.23828-0.28906 0.54688-0.4375 0.92188-0.4375 0.19531 0 0.375 0.042969 0.53125 0.125 0.16406 0.085938 0.31641 0.21484 0.45312 0.39062zm-0.64062 1.9375c0.20703 0 0.36328-0.070313 0.46875-0.21875 0.11328-0.15625 0.17188-0.37891 0.17188-0.67188 0-0.28125-0.058594-0.49219-0.17188-0.64062-0.10547-0.15625-0.26172-0.23438-0.46875-0.23438-0.19922 0-0.35547 0.078125-0.46875 0.23438-0.10547 0.14844-0.15625 0.35938-0.15625 0.64062 0 0.29297 0.050781 0.51562 0.15625 0.67188 0.11328 0.14844 0.26953 0.21875 0.46875 0.21875z"/>
        </symbol>
        <symbol id="j" overflow="visible">
            <path d="m2.0469-0.60938c0.20703 0 0.36328-0.070313 0.46875-0.21875 0.11328-0.15625 0.17188-0.37891 0.17188-0.67188 0-0.28125-0.058594-0.49219-0.17188-0.64062-0.10547-0.15625-0.26172-0.23438-0.46875-0.23438-0.19922 0-0.35547 0.078125-0.46875 0.23438-0.10547 0.14844-0.15625 0.35938-0.15625 0.64062 0 0.29297 0.050781 0.51562 0.15625 0.67188 0.11328 0.14844 0.26953 0.21875 0.46875 0.21875zm-0.625-1.9375c0.125-0.17578 0.26562-0.30469 0.42188-0.39062 0.16406-0.082031 0.35156-0.125 0.5625-0.125 0.36328 0 0.66406 0.14844 0.90625 0.4375 0.23828 0.29297 0.35938 0.66797 0.35938 1.125 0 0.46875-0.12109 0.85156-0.35938 1.1406-0.24219 0.29297-0.54297 0.4375-0.90625 0.4375-0.21094 0-0.39844-0.042969-0.5625-0.125-0.15625-0.082031-0.29688-0.21094-0.42188-0.39062v0.4375h-0.96875v-4.1562h0.96875z"/>
        </symbol>
        <symbol id="i" overflow="visible">
            <path d="m0.0625-2.9844h0.95312l0.8125 2.0156 0.6875-2.0156h0.95312l-1.2656 3.2656c-0.125 0.33203-0.27344 0.56641-0.4375 0.70312-0.16797 0.13281-0.39062 0.20312-0.67188 0.20312h-0.54688v-0.64062h0.29688c0.16406 0 0.28516-0.027344 0.35938-0.078125 0.070313-0.054688 0.12891-0.14062 0.17188-0.26562l0.03125-0.09375z"/>
        </symbol>
        <symbol id="h" overflow="visible">
            <path d="m0.5-3.9844h1.3125l0.90625 2.125 0.90625-2.125h1.3125v3.9844h-0.96875v-2.9219l-0.92188 2.1562h-0.65625l-0.90625-2.1562v2.9219h-0.98438z"/>
        </symbol>
        <symbol id="u" overflow="visible">
            <path d="m1.2188-1.5312-1.0781-1.4531h1l0.625 0.875 0.60938-0.875h1.0156l-1.0781 1.4531 1.125 1.5312h-1l-0.67188-0.9375-0.67188 0.9375h-1.0156z"/>
        </symbol>
        <symbol id="t" overflow="visible">
            <path d="m0.45312-2.9844h0.96875v2.9844h-0.96875zm0-1.1719h0.96875v0.78125h-0.96875z"/>
        </symbol>
        <symbol id="g" overflow="visible">
            <path d="m2.875-2.8906v0.76562c-0.125-0.082031-0.25781-0.14453-0.39062-0.1875-0.13672-0.039062-0.27344-0.0625-0.40625-0.0625-0.27344 0-0.48047 0.078125-0.625 0.23438-0.14844 0.15625-0.21875 0.37109-0.21875 0.64062 0 0.28125 0.070313 0.5 0.21875 0.65625 0.14453 0.15625 0.35156 0.23438 0.625 0.23438 0.14453 0 0.28516-0.019531 0.42188-0.0625 0.13281-0.039063 0.25781-0.10938 0.375-0.20312v0.78125c-0.14844 0.0625-0.29688 0.10156-0.45312 0.125-0.15625 0.03125-0.3125 0.046875-0.46875 0.046875-0.54297 0-0.96484-0.13281-1.2656-0.40625-0.30469-0.28125-0.45312-0.67188-0.45312-1.1719 0-0.48828 0.14844-0.86719 0.45312-1.1406 0.30078-0.28125 0.72266-0.42188 1.2656-0.42188 0.15625 0 0.3125 0.015625 0.46875 0.046875 0.15625 0.023437 0.30469 0.0625 0.45312 0.125z"/>
        </symbol>
        <symbol id="b" overflow="visible">
            <path d="m1.875-2.375c-0.21094 0-0.37109 0.078125-0.48438 0.23438-0.10547 0.14844-0.15625 0.35938-0.15625 0.64062 0 0.29297 0.050781 0.51562 0.15625 0.67188 0.11328 0.14844 0.27344 0.21875 0.48438 0.21875 0.20703 0 0.36719-0.070313 0.48438-0.21875 0.11328-0.15625 0.17188-0.37891 0.17188-0.67188 0-0.28125-0.058594-0.49219-0.17188-0.64062-0.11719-0.15625-0.27734-0.23438-0.48438-0.23438zm0-0.6875c0.51953 0 0.92188 0.14062 1.2031 0.42188 0.28906 0.27344 0.4375 0.65234 0.4375 1.1406 0 0.5-0.14844 0.89062-0.4375 1.1719-0.28125 0.27344-0.68359 0.40625-1.2031 0.40625-0.51172 0-0.91406-0.13281-1.2031-0.40625-0.29297-0.28125-0.4375-0.67188-0.4375-1.1719 0-0.48828 0.14453-0.86719 0.4375-1.1406 0.28906-0.28125 0.69141-0.42188 1.2031-0.42188z"/>
        </symbol>
        <symbol id="f" overflow="visible">
            <path d="m3.4688-1.8281v1.8281h-0.96875v-1.3906c0-0.25781-0.007812-0.4375-0.015625-0.53125-0.011719-0.10156-0.03125-0.17578-0.0625-0.21875-0.03125-0.0625-0.085937-0.10938-0.15625-0.14062-0.0625-0.039062-0.13281-0.0625-0.20312-0.0625-0.21094 0-0.37109 0.078125-0.48438 0.23438-0.10547 0.15625-0.15625 0.37109-0.15625 0.64062v1.4688h-0.96875v-2.9844h0.96875v0.4375c0.13281-0.17578 0.28516-0.30469 0.45312-0.39062 0.16406-0.082031 0.34375-0.125 0.53125-0.125 0.34375 0 0.60156 0.10938 0.78125 0.32812 0.1875 0.21094 0.28125 0.51172 0.28125 0.90625z"/>
        </symbol>
        <symbol id="s" overflow="visible">
            <path d="m2.7969-2.8906v0.71875c-0.21094-0.082031-0.40625-0.14453-0.59375-0.1875-0.1875-0.039063-0.37109-0.0625-0.54688-0.0625-0.17969 0-0.3125 0.023437-0.40625 0.0625-0.085938 0.042969-0.125 0.10938-0.125 0.20312 0 0.085938 0.03125 0.14844 0.09375 0.1875 0.070312 0.042969 0.19531 0.074219 0.375 0.09375l0.15625 0.015625c0.48828 0.0625 0.81641 0.16797 0.98438 0.3125 0.17578 0.13672 0.26562 0.35938 0.26562 0.67188s-0.12109 0.55469-0.35938 0.71875c-0.23047 0.15625-0.57812 0.23438-1.0469 0.23438-0.19922 0-0.40625-0.015625-0.625-0.046875-0.21094-0.03125-0.42188-0.078125-0.64062-0.14062v-0.71875c0.1875 0.085937 0.37891 0.15234 0.57812 0.20312 0.20703 0.042969 0.41406 0.0625 0.625 0.0625 0.1875 0 0.32812-0.023438 0.42188-0.078125 0.09375-0.050781 0.14062-0.125 0.14062-0.21875s-0.039062-0.16016-0.10938-0.20312c-0.0625-0.039062-0.1875-0.070312-0.375-0.09375l-0.17188-0.015625c-0.42969-0.050781-0.73047-0.14844-0.90625-0.29688-0.16797-0.14453-0.25-0.36328-0.25-0.65625 0-0.32031 0.10938-0.55469 0.32812-0.70312 0.21875-0.15625 0.55078-0.23438 1-0.23438 0.17578 0 0.35938 0.015625 0.54688 0.046875 0.19531 0.023437 0.41016 0.0625 0.64062 0.125z"/>
        </symbol>
        <symbol id="r" overflow="visible">
            <path d="m2.4219-4.1562v0.625h-0.51562c-0.13672 0-0.23438 0.027344-0.29688 0.078125-0.054687 0.054687-0.078125 0.13672-0.078125 0.25v0.21875h0.82812v0.67188h-0.82812v2.3125h-0.95312v-2.3125h-0.46875v-0.67188h0.46875v-0.21875c0-0.32031 0.085937-0.5625 0.26562-0.71875 0.1875-0.15625 0.47266-0.23438 0.85938-0.23438z"/>
        </symbol>
        <symbol id="q" overflow="visible">
            <path d="m3.2344-2.5c0.11328-0.17578 0.25391-0.3125 0.42188-0.40625 0.16406-0.10156 0.35156-0.15625 0.5625-0.15625 0.33203 0 0.58594 0.10938 0.76562 0.32812 0.1875 0.21094 0.28125 0.51172 0.28125 0.90625v1.8281h-0.96875v-1.5625c0.007813-0.019531 0.015625-0.039062 0.015625-0.0625v-0.10938c0-0.21875-0.03125-0.375-0.09375-0.46875s-0.16406-0.14062-0.29688-0.14062c-0.1875 0-0.33594 0.078125-0.4375 0.23438-0.09375 0.14844-0.14062 0.35938-0.14062 0.64062v1.4688h-0.96875v-1.5625c0-0.33203-0.03125-0.54688-0.09375-0.64062-0.054688-0.09375-0.15234-0.14062-0.29688-0.14062-0.17969 0-0.32031 0.078125-0.42188 0.23438-0.09375 0.14844-0.14062 0.35938-0.14062 0.64062v1.4688h-0.96875v-2.9844h0.96875v0.4375c0.11328-0.17578 0.24219-0.30469 0.39062-0.39062 0.15625-0.082031 0.32812-0.125 0.51562-0.125 0.20703 0 0.39062 0.054688 0.54688 0.15625 0.15625 0.09375 0.27344 0.23047 0.35938 0.40625z"/>
        </symbol>
        <symbol id="p" overflow="visible">
            <path d="m3.4688-1.8281v1.8281h-0.96875v-1.3906c0-0.25781-0.007812-0.4375-0.015625-0.53125-0.011719-0.10156-0.03125-0.17578-0.0625-0.21875-0.03125-0.0625-0.085937-0.10938-0.15625-0.14062-0.0625-0.039062-0.13281-0.0625-0.20312-0.0625-0.21094 0-0.37109 0.078125-0.48438 0.23438-0.10547 0.15625-0.15625 0.37109-0.15625 0.64062v1.4688h-0.96875v-4.1562h0.96875v1.6094c0.13281-0.17578 0.28516-0.30469 0.45312-0.39062 0.16406-0.082031 0.34375-0.125 0.53125-0.125 0.34375 0 0.60156 0.10938 0.78125 0.32812 0.1875 0.21094 0.28125 0.51172 0.28125 0.90625z"/>
        </symbol>
        <symbol id="o" overflow="visible">
            <path d="m0.5-3.9844h1.1562l1.4375 2.7344v-2.7344h0.98438v3.9844h-1.1562l-1.4375-2.7344v2.7344h-0.98438z"/>
        </symbol>
        <symbol id="n" overflow="visible">
            <path d="m0.42188-1.1719v-1.8125h0.96875v0.29688 0.60938 0.48438c0 0.24219 0.003906 0.41797 0.015625 0.53125 0.007812 0.10547 0.03125 0.17969 0.0625 0.21875 0.039062 0.0625 0.09375 0.11719 0.15625 0.15625 0.0625 0.03125 0.13281 0.046875 0.21875 0.046875 0.19531 0 0.35156-0.078125 0.46875-0.23438 0.11328-0.15625 0.17188-0.36719 0.17188-0.64062v-1.4688h0.95312v2.9844h-0.95312v-0.4375c-0.14844 0.17969-0.30469 0.30859-0.46875 0.39062-0.15625 0.082031-0.33594 0.125-0.53125 0.125-0.34375 0-0.60938-0.10156-0.79688-0.3125-0.17969-0.21875-0.26562-0.53125-0.26562-0.9375z"/>
        </symbol>
        <symbol id="m" overflow="visible">
            <path d="m0.5-3.9844h1.7031c0.50781 0 0.89844 0.11719 1.1719 0.34375 0.26953 0.21875 0.40625 0.53906 0.40625 0.95312 0 0.41797-0.13672 0.74219-0.40625 0.96875-0.27344 0.21875-0.66406 0.32812-1.1719 0.32812h-0.67188v1.3906h-1.0312zm1.0312 0.75v1.1094h0.5625c0.19531 0 0.34766-0.046875 0.45312-0.14062 0.11328-0.10156 0.17188-0.24219 0.17188-0.42188 0-0.17578-0.058594-0.3125-0.17188-0.40625-0.10547-0.09375-0.25781-0.14062-0.45312-0.14062z"/>
        </symbol>
        <symbol id="l" overflow="visible">
            <path d="m0.45312-2.9844h0.96875v2.9375c0 0.39453-0.10156 0.69531-0.29688 0.90625-0.1875 0.21875-0.46484 0.32812-0.82812 0.32812h-0.48438v-0.64062h0.17188c0.17578 0 0.29688-0.042969 0.35938-0.125 0.070312-0.074219 0.10938-0.23047 0.10938-0.46875zm0-1.1719h0.96875v0.78125h-0.96875z"/>
        </symbol>
    </defs>
    <g>
        <path d="m210.49 401.87c-3.2188 0-5.8281 2.6094-5.8281 5.8281v82.457c0.003907 7.6133 3.0312 14.914 8.4141 20.297 5.3828 5.3828 12.684 8.4102 20.297 8.4141h233.25c7.6133-0.003906 14.914-3.0312 20.297-8.4141 5.3828-5.3828 8.4102-12.684 8.4141-20.297v-82.457c-0.13281-3.125-2.707-5.5898-5.832-5.5898-3.1289 0-5.7031 2.4648-5.8359 5.5898v82.457c-0.007813 4.5195-1.8047 8.8477-5 12.043-3.1914 3.1953-7.5234 4.9922-12.043 5h-233.25c-4.5195-0.007812-8.8516-1.8047-12.043-5-3.1953-3.1953-4.9922-7.5234-5-12.043v-82.457c-0.003906-3.2227-2.6172-5.8281-5.8398-5.8281z"/>
        <path d="m114.22 169.42c0.84375 0.45312 1.7891 0.69141 2.7461 0.6875 2.1562 0 4.1367-1.1914 5.1523-3.0938 0.12109-0.23047 12.82-23.23 54.219-29.289 3.0898-0.57031 5.1797-3.4844 4.7227-6.5938-0.45703-3.1133-3.293-5.3008-6.418-4.957-47.164 6.9023-62.203 34.191-62.824 35.352l-0.003906-0.003906c-1.5117 2.8477-0.4375 6.3828 2.4062 7.8984z"/>
        <path d="m120.07 377.14c17.914-11.277 35-31.148 42.93-41.137 6.8477 8.3398 14.379 16.09 22.523 23.164l21.195 18.367 0.097656 0.078125s0 0.054687 0.078125 0.078125c0.20703 0.16406 20.684 16.746 29.07 32.727v-0.007812c1.0078 1.9258 3.0039 3.1289 5.1758 3.1289 0.94141 0 1.8711-0.23047 2.7109-0.66797 2.8477-1.5039 3.9453-5.0312 2.4492-7.8828-9.3281-17.773-30.285-34.934-32.004-36.324l-21.066-18.309h0.003906c-9.2344-8-17.633-16.91-25.07-26.602l-0.58984-0.76562c-15.355-19.84-11.168-45.523-11.168-45.852 0.42188-3.1055-1.6875-5.9922-4.7734-6.5352-3.0898-0.54297-6.0547 1.4492-6.7227 4.5117-0.20703 1.2031-4.7344 28.055 10.73 51.309-6.4219 8.2266-24.062 29.629-41.824 40.84-2.5156 1.7969-3.1914 5.2422-1.543 7.8555 1.6484 2.6133 5.0508 3.4883 7.7539 1.9883z"/>
        <path d="m180.47 155.4c1.957 2.5625 5.6211 3.0508 8.1797 1.0938 15.191-11.496 21.797-20.781 22.891-22.434 1.0938-1.3906 25.156-32.496 61.656-29.301 2.2852 0.42578 18.059 3.4453 27.859 8.1484 1.4023 0.74609 3.0508 0.88281 4.5586 0.38672 1.5078-0.49609 2.75-1.5859 3.4375-3.0195 0.6875-1.4297 0.76172-3.082 0.20703-4.5703-0.55469-1.4883-1.6914-2.6875-3.1484-3.3164-6.9023-3.2812-15.938-5.8086-22.52-7.3516 5.8203-9.4844 14.797-27.039 16.656-47.59 0.21875-3.1602-2.1211-5.9258-5.2812-6.2227-3.1562-0.29688-5.9727 1.9805-6.3477 5.1289-1.9766 21.68-13.199 40.133-17.586 46.617-41.758-1.8477-67.812 32.812-68.961 34.289-0.035156 0.050782-0.070312 0.10547-0.097656 0.16406-0.039062 0.042969-0.078125 0.085937-0.10938 0.13281 0 0.085937-5.7539 8.75-20.277 19.688-2.5547 1.9492-3.0508 5.5938-1.1172 8.1562z"/>
        <path d="m254.05 301.98c-2.4805 1.9102-3.0156 5.4336-1.2109 7.9922 1.8047 2.5586 5.3047 3.2422 7.9375 1.5469 70-49.371 64.434-123.59 64.16-126.69l-0.003906-0.003907c-0.27734-3.2109-3.1055-5.5859-6.3164-5.3086-3.2109 0.27734-5.5859 3.1055-5.3086 6.3164 0.066406 0.69922 5.3047 70.59-59.258 116.14z"/>
        <path d="m288.34 424.61c0.75 0.003906 1.4922-0.13281 2.1875-0.40625 12.898-5.7773 24.27-14.48 33.219-25.418 2.0508-2.4844 1.6992-6.1641-0.78906-8.2148-2.4844-2.0508-6.1602-1.6992-8.2109 0.78906-7.7461 9.3906-17.52 16.91-28.582 21.996-2.6172 1.0273-4.125 3.7773-3.5898 6.5352 0.53906 2.7617 2.9688 4.7422 5.7773 4.7188z"/>
        <path d="m523.66 137.73c40.906 5.9844 53.68 28.316 54.227 29.324l0.003906-0.003906c1.0234 1.8867 2.9961 3.0625 5.1406 3.0625 0.95703 0.003906 1.9023-0.23438 2.7461-0.6875 2.8438-1.5156 3.918-5.0508 2.4062-7.8984-0.625-1.1602-15.664-28.438-62.824-35.352l-0.003906 0.003906c-3.125-0.34375-5.9609 1.8438-6.418 4.957-0.45703 3.1094 1.6328 6.0234 4.7227 6.5938z"/>
        <path d="m537.03 336c7.9609 9.9844 25.016 29.859 42.93 41.137 2.7031 1.4961 6.1055 0.625 7.7539-1.9883 1.6484-2.6133 0.97266-6.0586-1.543-7.8555-17.762-11.188-35.395-32.617-41.812-40.84 15.453-23.254 10.938-50.105 10.719-51.309-0.72656-2.9883-3.6445-4.9062-6.6719-4.3789-3.0312 0.52344-5.1367 3.3086-4.8125 6.3672 0 0.26172 4.2539 25.988-11.125 45.828l-0.57812 0.76562c-7.4219 9.6914-15.801 18.609-25.016 26.613l-21.066 18.309c-1.7188 1.3906-22.672 18.594-32.004 36.324h0.003906c-1.5117 2.8516-0.42188 6.3906 2.4336 7.9023 2.8516 1.5078 6.3906 0.41797 7.9023-2.4336 8.3906-15.98 28.863-32.562 29.07-32.727 0 0 0-0.054688 0.078125-0.078125l0.097656-0.078125 21.141-18.363v0.003907c8.1367-7.0898 15.664-14.852 22.5-23.199z"/>
        <path d="m396.44 113.53c0.875 0 1.7383-0.19922 2.5273-0.57812 9.7773-4.6914 25.582-7.7227 27.867-8.1484 36.301-3.1836 60.453 27.738 61.645 29.289 1.1914 1.5547 7.6562 10.938 22.891 22.445 1.2305 1.0039 2.8164 1.4688 4.3906 1.2812 1.5781-0.1875 3.0117-1.0117 3.9688-2.2773s1.3594-2.8672 1.1133-4.4375c-0.25-1.5664-1.125-2.9688-2.4297-3.875-14.438-10.938-20.156-19.5-20.277-19.688-0.12109-0.1875-0.078125-0.085938-0.10938-0.14062-0.03125-0.054688 0-0.10938-0.097656-0.15234-1.0938-1.5195-27.102-36.172-68.973-34.277-4.375-6.4648-15.598-24.852-17.555-46.527v-0.003906c-0.37109-3.1484-3.1875-5.4258-6.3477-5.1289-3.1562 0.29688-5.5 3.0586-5.2773 6.2227 1.8594 20.551 10.84 38.105 16.656 47.59-6.5625 1.543-15.617 4.0352-22.52 7.3516v-0.003906c-2.4531 1.1836-3.7617 3.9023-3.1562 6.5586 0.60156 2.6523 2.9609 4.5391 5.6836 4.543z"/>
        <path d="m439.23 311.52c1.2617 0.96875 2.8633 1.3828 4.4375 1.1445 1.5742-0.23828 2.9844-1.1055 3.9023-2.4062 0.91406-1.3008 1.2617-2.9219 0.95703-4.4844-0.30078-1.5586-1.2305-2.9297-2.5703-3.793-64.301-45.367-59.324-115.34-59.258-116.16 0.27344-3.2109-2.1055-6.0352-5.3164-6.3125-3.2109-0.27344-6.0352 2.1055-6.3086 5.3164-0.27344 3.1406-5.832 77.316 64.156 126.69z"/>
        <path d="m409.52 424.2c2.9609 1.0391 6.2109-0.45312 7.3633-3.3711 1.1484-2.9219-0.21484-6.2266-3.0898-7.4883-11.078-5.0469-20.852-12.566-28.566-21.984-0.96484-1.25-2.3984-2.0547-3.9688-2.2305-1.5703-0.17578-3.1445 0.29297-4.3633 1.3008-1.2148 1.0078-1.9727 2.4648-2.0938 4.0391-0.125 1.5742 0.39844 3.1328 1.4453 4.3164 8.9648 10.945 20.355 19.648 33.273 25.418z"/>
        <path d="m350 486.96c3.2266 0 5.8398-2.6172 5.8398-5.8438v-24.062c0.070312-1.5898-0.51562-3.1406-1.6172-4.2891-1.1016-1.1523-2.625-1.8008-4.2188-1.8008-1.5898 0-3.1133 0.64844-4.2148 1.8008-1.1055 1.1484-1.6875 2.6992-1.6172 4.2891v24.062c-0.003906 1.5508 0.60938 3.0352 1.7031 4.1289 1.0938 1.0977 2.5781 1.7148 4.125 1.7148z"/>
        <path d="m350 420.96c1.5469 0.003906 3.0352-0.60938 4.1289-1.7031 1.0977-1.0938 1.7109-2.5781 1.7109-4.125v-162.6c-0.13281-3.125-2.707-5.5859-5.8359-5.5859-3.125 0-5.6992 2.4609-5.832 5.5859v162.6c-0.003906 1.5469 0.60938 3.0312 1.7031 4.125s2.5781 1.707 4.125 1.7031z"/>
        <use x="70" y="576.40625" xlink:href="#v"/>
        <use x="74.011719" y="576.40625" xlink:href="#d"/>
        <use x="76.710938" y="576.40625" xlink:href="#a"/>
        <use x="80.417969" y="576.40625" xlink:href="#e"/>
        <use x="84.109375" y="576.40625" xlink:href="#c"/>
        <use x="86.722656" y="576.40625" xlink:href="#a"/>
        <use x="90.433594" y="576.40625" xlink:href="#k"/>
        <use x="96.25" y="576.40625" xlink:href="#j"/>
        <use x="100.167969" y="576.40625" xlink:href="#i"/>
        <use x="105.636719" y="576.40625" xlink:href="#h"/>
        <use x="111.078125" y="576.40625" xlink:href="#e"/>
        <use x="114.765625" y="576.40625" xlink:href="#u"/>
        <use x="118.292969" y="576.40625" xlink:href="#t"/>
        <use x="120.167969" y="576.40625" xlink:href="#g"/>
        <use x="123.410156" y="576.40625" xlink:href="#b"/>
        <use x="127.167969" y="576.40625" xlink:href="#f"/>
        <use x="131.0625" y="576.40625" xlink:href="#s"/>
        <use x="70" y="581.875" xlink:href="#r"/>
        <use x="72.378906" y="581.875" xlink:href="#d"/>
        <use x="75.078125" y="581.875" xlink:href="#b"/>
        <use x="78.832031" y="581.875" xlink:href="#q"/>
        <use x="86.4375" y="581.875" xlink:href="#c"/>
        <use x="89.050781" y="581.875" xlink:href="#p"/>
        <use x="92.941406" y="581.875" xlink:href="#a"/>
        <use x="98.554688" y="581.875" xlink:href="#o"/>
        <use x="103.132812" y="581.875" xlink:href="#b"/>
        <use x="106.890625" y="581.875" xlink:href="#n"/>
        <use x="110.785156" y="581.875" xlink:href="#f"/>
        <use x="116.582031" y="581.875" xlink:href="#m"/>
        <use x="120.589844" y="581.875" xlink:href="#d"/>
        <use x="123.285156" y="581.875" xlink:href="#b"/>
        <use x="127.042969" y="581.875" xlink:href="#l"/>
        <use x="128.917969" y="581.875" xlink:href="#a"/>
        <use x="132.625" y="581.875" xlink:href="#g"/>
        <use x="135.867188" y="581.875" xlink:href="#c"/>
    </g>
</svg>
