<?xml version="1.0" encoding="UTF-8"?>
<svg xmlns:xlink="http://www.w3.org/1999/xlink" width="700pt" height="700pt" version="1.1" viewBox="0 0 700 700"
     xmlns="http://www.w3.org/2000/svg">
    <defs>
        <symbol id="v" overflow="visible">
            <path d="m3.6562-0.21875c-0.1875 0.09375-0.38672 0.16797-0.59375 0.21875-0.19922 0.050781-0.40625 0.078125-0.625 0.078125-0.66797 0-1.1992-0.17969-1.5938-0.54688-0.38672-0.375-0.57812-0.87891-0.57812-1.5156 0-0.64453 0.19141-1.1484 0.57812-1.5156 0.39453-0.375 0.92578-0.5625 1.5938-0.5625 0.21875 0 0.42578 0.027344 0.625 0.078125 0.20703 0.054687 0.40625 0.125 0.59375 0.21875v0.82812c-0.1875-0.125-0.375-0.21875-0.5625-0.28125-0.17969-0.0625-0.37109-0.09375-0.57812-0.09375-0.36719 0-0.65625 0.12109-0.875 0.35938-0.21094 0.23047-0.3125 0.55469-0.3125 0.96875 0 0.40625 0.10156 0.73047 0.3125 0.96875 0.21875 0.23047 0.50781 0.34375 0.875 0.34375 0.20703 0 0.39844-0.023437 0.57812-0.078125 0.1875-0.0625 0.375-0.16016 0.5625-0.29688z"/>
        </symbol>
        <symbol id="d" overflow="visible">
            <path d="m2.6875-2.1719c-0.085938-0.039063-0.16797-0.070313-0.25-0.09375-0.085938-0.019531-0.16797-0.03125-0.25-0.03125-0.25 0-0.44531 0.085937-0.57812 0.25-0.125 0.15625-0.1875 0.38281-0.1875 0.67188v1.375h-0.96875v-2.9844h0.96875v0.48438c0.11328-0.19531 0.25-0.33594 0.40625-0.42188 0.16406-0.09375 0.35938-0.14062 0.57812-0.14062h0.10938c0.039063 0 0.09375 0.007812 0.15625 0.015625z"/>
        </symbol>
        <symbol id="a" overflow="visible">
            <path d="m3.4375-1.5v0.26562h-2.2344c0.03125 0.23047 0.11328 0.40234 0.25 0.51562 0.13281 0.10547 0.32812 0.15625 0.57812 0.15625 0.20703 0 0.41406-0.023438 0.625-0.078125 0.20703-0.0625 0.42188-0.15625 0.64062-0.28125v0.73438c-0.21875 0.09375-0.44531 0.16406-0.67188 0.20312-0.23047 0.039062-0.45312 0.0625-0.67188 0.0625-0.54297 0-0.96484-0.13281-1.2656-0.40625-0.30469-0.28125-0.45312-0.67188-0.45312-1.1719 0-0.47656 0.14453-0.85938 0.4375-1.1406 0.30078-0.28125 0.70703-0.42188 1.2188-0.42188 0.46875 0 0.84375 0.14062 1.125 0.42188s0.42188 0.66406 0.42188 1.1406zm-0.96875-0.32812c0-0.17578-0.058594-0.31641-0.17188-0.42188-0.10547-0.11328-0.24219-0.17188-0.40625-0.17188-0.1875 0-0.33984 0.054687-0.45312 0.15625-0.11719 0.10547-0.1875 0.25-0.21875 0.4375z"/>
        </symbol>
        <symbol id="e" overflow="visible">
            <path d="m1.7969-1.3438c-0.19922 0-0.35156 0.039062-0.45312 0.10938-0.09375 0.0625-0.14062 0.16406-0.14062 0.29688 0 0.11719 0.035156 0.21094 0.10938 0.28125 0.082031 0.0625 0.19531 0.09375 0.34375 0.09375 0.17578 0 0.32812-0.0625 0.45312-0.1875s0.1875-0.28516 0.1875-0.48438v-0.10938zm1.4688-0.35938v1.7031h-0.96875v-0.4375c-0.125 0.17969-0.27344 0.30859-0.4375 0.39062-0.15625 0.082031-0.35156 0.125-0.57812 0.125-0.3125 0-0.57031-0.085938-0.76562-0.26562-0.1875-0.1875-0.28125-0.42188-0.28125-0.70312 0-0.35156 0.11719-0.61328 0.35938-0.78125 0.23828-0.16406 0.61719-0.25 1.1406-0.25h0.5625v-0.0625c0-0.15625-0.0625-0.26562-0.1875-0.32812-0.11719-0.070312-0.29688-0.10938-0.54688-0.10938-0.21094 0-0.40234 0.023437-0.57812 0.0625-0.17969 0.042969-0.33984 0.10156-0.48438 0.17188v-0.71875c0.19531-0.050781 0.39844-0.085938 0.60938-0.10938 0.20703-0.03125 0.41406-0.046875 0.625-0.046875 0.53906 0 0.92969 0.10938 1.1719 0.32812 0.23828 0.21094 0.35938 0.55469 0.35938 1.0312z"/>
        </symbol>
        <symbol id="c" overflow="visible">
            <path d="m1.5-3.8438v0.85938h0.98438v0.67188h-0.98438v1.2812c0 0.13672 0.023438 0.23047 0.078125 0.28125 0.0625 0.042969 0.17578 0.0625 0.34375 0.0625h0.48438v0.6875h-0.8125c-0.38672 0-0.65625-0.078125-0.8125-0.23438s-0.23438-0.42188-0.23438-0.79688v-1.2812h-0.46875v-0.67188h0.46875v-0.85938z"/>
        </symbol>
        <symbol id="k" overflow="visible">
            <path d="m2.5-2.5469v-1.6094h0.95312v4.1562h-0.95312v-0.4375c-0.13672 0.17969-0.28125 0.30859-0.4375 0.39062-0.15625 0.082031-0.33984 0.125-0.54688 0.125-0.375 0-0.68359-0.14453-0.92188-0.4375-0.23047-0.28906-0.34375-0.67188-0.34375-1.1406 0-0.45703 0.11328-0.83203 0.34375-1.125 0.23828-0.28906 0.54688-0.4375 0.92188-0.4375 0.19531 0 0.375 0.042969 0.53125 0.125 0.16406 0.085938 0.31641 0.21484 0.45312 0.39062zm-0.64062 1.9375c0.20703 0 0.36328-0.070313 0.46875-0.21875 0.11328-0.15625 0.17188-0.37891 0.17188-0.67188 0-0.28125-0.058594-0.49219-0.17188-0.64062-0.10547-0.15625-0.26172-0.23438-0.46875-0.23438-0.19922 0-0.35547 0.078125-0.46875 0.23438-0.10547 0.14844-0.15625 0.35938-0.15625 0.64062 0 0.29297 0.050781 0.51562 0.15625 0.67188 0.11328 0.14844 0.26953 0.21875 0.46875 0.21875z"/>
        </symbol>
        <symbol id="j" overflow="visible">
            <path d="m2.0469-0.60938c0.20703 0 0.36328-0.070313 0.46875-0.21875 0.11328-0.15625 0.17188-0.37891 0.17188-0.67188 0-0.28125-0.058594-0.49219-0.17188-0.64062-0.10547-0.15625-0.26172-0.23438-0.46875-0.23438-0.19922 0-0.35547 0.078125-0.46875 0.23438-0.10547 0.14844-0.15625 0.35938-0.15625 0.64062 0 0.29297 0.050781 0.51562 0.15625 0.67188 0.11328 0.14844 0.26953 0.21875 0.46875 0.21875zm-0.625-1.9375c0.125-0.17578 0.26562-0.30469 0.42188-0.39062 0.16406-0.082031 0.35156-0.125 0.5625-0.125 0.36328 0 0.66406 0.14844 0.90625 0.4375 0.23828 0.29297 0.35938 0.66797 0.35938 1.125 0 0.46875-0.12109 0.85156-0.35938 1.1406-0.24219 0.29297-0.54297 0.4375-0.90625 0.4375-0.21094 0-0.39844-0.042969-0.5625-0.125-0.15625-0.082031-0.29688-0.21094-0.42188-0.39062v0.4375h-0.96875v-4.1562h0.96875z"/>
        </symbol>
        <symbol id="i" overflow="visible">
            <path d="m0.0625-2.9844h0.95312l0.8125 2.0156 0.6875-2.0156h0.95312l-1.2656 3.2656c-0.125 0.33203-0.27344 0.56641-0.4375 0.70312-0.16797 0.13281-0.39062 0.20312-0.67188 0.20312h-0.54688v-0.64062h0.29688c0.16406 0 0.28516-0.027344 0.35938-0.078125 0.070313-0.054688 0.12891-0.14062 0.17188-0.26562l0.03125-0.09375z"/>
        </symbol>
        <symbol id="h" overflow="visible">
            <path d="m0.5-3.9844h1.3125l0.90625 2.125 0.90625-2.125h1.3125v3.9844h-0.96875v-2.9219l-0.92188 2.1562h-0.65625l-0.90625-2.1562v2.9219h-0.98438z"/>
        </symbol>
        <symbol id="u" overflow="visible">
            <path d="m1.2188-1.5312-1.0781-1.4531h1l0.625 0.875 0.60938-0.875h1.0156l-1.0781 1.4531 1.125 1.5312h-1l-0.67188-0.9375-0.67188 0.9375h-1.0156z"/>
        </symbol>
        <symbol id="t" overflow="visible">
            <path d="m0.45312-2.9844h0.96875v2.9844h-0.96875zm0-1.1719h0.96875v0.78125h-0.96875z"/>
        </symbol>
        <symbol id="g" overflow="visible">
            <path d="m2.875-2.8906v0.76562c-0.125-0.082031-0.25781-0.14453-0.39062-0.1875-0.13672-0.039062-0.27344-0.0625-0.40625-0.0625-0.27344 0-0.48047 0.078125-0.625 0.23438-0.14844 0.15625-0.21875 0.37109-0.21875 0.64062 0 0.28125 0.070313 0.5 0.21875 0.65625 0.14453 0.15625 0.35156 0.23438 0.625 0.23438 0.14453 0 0.28516-0.019531 0.42188-0.0625 0.13281-0.039063 0.25781-0.10938 0.375-0.20312v0.78125c-0.14844 0.0625-0.29688 0.10156-0.45312 0.125-0.15625 0.03125-0.3125 0.046875-0.46875 0.046875-0.54297 0-0.96484-0.13281-1.2656-0.40625-0.30469-0.28125-0.45312-0.67188-0.45312-1.1719 0-0.48828 0.14844-0.86719 0.45312-1.1406 0.30078-0.28125 0.72266-0.42188 1.2656-0.42188 0.15625 0 0.3125 0.015625 0.46875 0.046875 0.15625 0.023437 0.30469 0.0625 0.45312 0.125z"/>
        </symbol>
        <symbol id="b" overflow="visible">
            <path d="m1.875-2.375c-0.21094 0-0.37109 0.078125-0.48438 0.23438-0.10547 0.14844-0.15625 0.35938-0.15625 0.64062 0 0.29297 0.050781 0.51562 0.15625 0.67188 0.11328 0.14844 0.27344 0.21875 0.48438 0.21875 0.20703 0 0.36719-0.070313 0.48438-0.21875 0.11328-0.15625 0.17188-0.37891 0.17188-0.67188 0-0.28125-0.058594-0.49219-0.17188-0.64062-0.11719-0.15625-0.27734-0.23438-0.48438-0.23438zm0-0.6875c0.51953 0 0.92188 0.14062 1.2031 0.42188 0.28906 0.27344 0.4375 0.65234 0.4375 1.1406 0 0.5-0.14844 0.89062-0.4375 1.1719-0.28125 0.27344-0.68359 0.40625-1.2031 0.40625-0.51172 0-0.91406-0.13281-1.2031-0.40625-0.29297-0.28125-0.4375-0.67188-0.4375-1.1719 0-0.48828 0.14453-0.86719 0.4375-1.1406 0.28906-0.28125 0.69141-0.42188 1.2031-0.42188z"/>
        </symbol>
        <symbol id="f" overflow="visible">
            <path d="m3.4688-1.8281v1.8281h-0.96875v-1.3906c0-0.25781-0.007812-0.4375-0.015625-0.53125-0.011719-0.10156-0.03125-0.17578-0.0625-0.21875-0.03125-0.0625-0.085937-0.10938-0.15625-0.14062-0.0625-0.039062-0.13281-0.0625-0.20312-0.0625-0.21094 0-0.37109 0.078125-0.48438 0.23438-0.10547 0.15625-0.15625 0.37109-0.15625 0.64062v1.4688h-0.96875v-2.9844h0.96875v0.4375c0.13281-0.17578 0.28516-0.30469 0.45312-0.39062 0.16406-0.082031 0.34375-0.125 0.53125-0.125 0.34375 0 0.60156 0.10938 0.78125 0.32812 0.1875 0.21094 0.28125 0.51172 0.28125 0.90625z"/>
        </symbol>
        <symbol id="s" overflow="visible">
            <path d="m2.7969-2.8906v0.71875c-0.21094-0.082031-0.40625-0.14453-0.59375-0.1875-0.1875-0.039063-0.37109-0.0625-0.54688-0.0625-0.17969 0-0.3125 0.023437-0.40625 0.0625-0.085938 0.042969-0.125 0.10938-0.125 0.20312 0 0.085938 0.03125 0.14844 0.09375 0.1875 0.070312 0.042969 0.19531 0.074219 0.375 0.09375l0.15625 0.015625c0.48828 0.0625 0.81641 0.16797 0.98438 0.3125 0.17578 0.13672 0.26562 0.35938 0.26562 0.67188s-0.12109 0.55469-0.35938 0.71875c-0.23047 0.15625-0.57812 0.23438-1.0469 0.23438-0.19922 0-0.40625-0.015625-0.625-0.046875-0.21094-0.03125-0.42188-0.078125-0.64062-0.14062v-0.71875c0.1875 0.085937 0.37891 0.15234 0.57812 0.20312 0.20703 0.042969 0.41406 0.0625 0.625 0.0625 0.1875 0 0.32812-0.023438 0.42188-0.078125 0.09375-0.050781 0.14062-0.125 0.14062-0.21875s-0.039062-0.16016-0.10938-0.20312c-0.0625-0.039062-0.1875-0.070312-0.375-0.09375l-0.17188-0.015625c-0.42969-0.050781-0.73047-0.14844-0.90625-0.29688-0.16797-0.14453-0.25-0.36328-0.25-0.65625 0-0.32031 0.10938-0.55469 0.32812-0.70312 0.21875-0.15625 0.55078-0.23438 1-0.23438 0.17578 0 0.35938 0.015625 0.54688 0.046875 0.19531 0.023437 0.41016 0.0625 0.64062 0.125z"/>
        </symbol>
        <symbol id="r" overflow="visible">
            <path d="m2.4219-4.1562v0.625h-0.51562c-0.13672 0-0.23438 0.027344-0.29688 0.078125-0.054687 0.054687-0.078125 0.13672-0.078125 0.25v0.21875h0.82812v0.67188h-0.82812v2.3125h-0.95312v-2.3125h-0.46875v-0.67188h0.46875v-0.21875c0-0.32031 0.085937-0.5625 0.26562-0.71875 0.1875-0.15625 0.47266-0.23438 0.85938-0.23438z"/>
        </symbol>
        <symbol id="q" overflow="visible">
            <path d="m3.2344-2.5c0.11328-0.17578 0.25391-0.3125 0.42188-0.40625 0.16406-0.10156 0.35156-0.15625 0.5625-0.15625 0.33203 0 0.58594 0.10938 0.76562 0.32812 0.1875 0.21094 0.28125 0.51172 0.28125 0.90625v1.8281h-0.96875v-1.5625c0.007813-0.019531 0.015625-0.039062 0.015625-0.0625v-0.10938c0-0.21875-0.03125-0.375-0.09375-0.46875s-0.16406-0.14062-0.29688-0.14062c-0.1875 0-0.33594 0.078125-0.4375 0.23438-0.09375 0.14844-0.14062 0.35938-0.14062 0.64062v1.4688h-0.96875v-1.5625c0-0.33203-0.03125-0.54688-0.09375-0.64062-0.054688-0.09375-0.15234-0.14062-0.29688-0.14062-0.17969 0-0.32031 0.078125-0.42188 0.23438-0.09375 0.14844-0.14062 0.35938-0.14062 0.64062v1.4688h-0.96875v-2.9844h0.96875v0.4375c0.11328-0.17578 0.24219-0.30469 0.39062-0.39062 0.15625-0.082031 0.32812-0.125 0.51562-0.125 0.20703 0 0.39062 0.054688 0.54688 0.15625 0.15625 0.09375 0.27344 0.23047 0.35938 0.40625z"/>
        </symbol>
        <symbol id="p" overflow="visible">
            <path d="m3.4688-1.8281v1.8281h-0.96875v-1.3906c0-0.25781-0.007812-0.4375-0.015625-0.53125-0.011719-0.10156-0.03125-0.17578-0.0625-0.21875-0.03125-0.0625-0.085937-0.10938-0.15625-0.14062-0.0625-0.039062-0.13281-0.0625-0.20312-0.0625-0.21094 0-0.37109 0.078125-0.48438 0.23438-0.10547 0.15625-0.15625 0.37109-0.15625 0.64062v1.4688h-0.96875v-4.1562h0.96875v1.6094c0.13281-0.17578 0.28516-0.30469 0.45312-0.39062 0.16406-0.082031 0.34375-0.125 0.53125-0.125 0.34375 0 0.60156 0.10938 0.78125 0.32812 0.1875 0.21094 0.28125 0.51172 0.28125 0.90625z"/>
        </symbol>
        <symbol id="o" overflow="visible">
            <path d="m0.5-3.9844h1.1562l1.4375 2.7344v-2.7344h0.98438v3.9844h-1.1562l-1.4375-2.7344v2.7344h-0.98438z"/>
        </symbol>
        <symbol id="n" overflow="visible">
            <path d="m0.42188-1.1719v-1.8125h0.96875v0.29688 0.60938 0.48438c0 0.24219 0.003906 0.41797 0.015625 0.53125 0.007812 0.10547 0.03125 0.17969 0.0625 0.21875 0.039062 0.0625 0.09375 0.11719 0.15625 0.15625 0.0625 0.03125 0.13281 0.046875 0.21875 0.046875 0.19531 0 0.35156-0.078125 0.46875-0.23438 0.11328-0.15625 0.17188-0.36719 0.17188-0.64062v-1.4688h0.95312v2.9844h-0.95312v-0.4375c-0.14844 0.17969-0.30469 0.30859-0.46875 0.39062-0.15625 0.082031-0.33594 0.125-0.53125 0.125-0.34375 0-0.60938-0.10156-0.79688-0.3125-0.17969-0.21875-0.26562-0.53125-0.26562-0.9375z"/>
        </symbol>
        <symbol id="m" overflow="visible">
            <path d="m0.5-3.9844h1.7031c0.50781 0 0.89844 0.11719 1.1719 0.34375 0.26953 0.21875 0.40625 0.53906 0.40625 0.95312 0 0.41797-0.13672 0.74219-0.40625 0.96875-0.27344 0.21875-0.66406 0.32812-1.1719 0.32812h-0.67188v1.3906h-1.0312zm1.0312 0.75v1.1094h0.5625c0.19531 0 0.34766-0.046875 0.45312-0.14062 0.11328-0.10156 0.17188-0.24219 0.17188-0.42188 0-0.17578-0.058594-0.3125-0.17188-0.40625-0.10547-0.09375-0.25781-0.14062-0.45312-0.14062z"/>
        </symbol>
        <symbol id="l" overflow="visible">
            <path d="m0.45312-2.9844h0.96875v2.9375c0 0.39453-0.10156 0.69531-0.29688 0.90625-0.1875 0.21875-0.46484 0.32812-0.82812 0.32812h-0.48438v-0.64062h0.17188c0.17578 0 0.29688-0.042969 0.35938-0.125 0.070312-0.074219 0.10938-0.23047 0.10938-0.46875zm0-1.1719h0.96875v0.78125h-0.96875z"/>
        </symbol>
    </defs>
    <g>
        <path d="m439.8 95.156c20.289 0 50.562 9.9844 69.148 38.117 1.3281 2.0117 3.7578 3 6.1133 2.4844 0.41406-0.085937 41.715-8.75 62.758 20.977 1.8633 2.6289 5.5039 3.2461 8.1328 1.3828 1.2617-0.89453 2.1172-2.2539 2.375-3.7773 0.26172-1.5273-0.097657-3.0938-0.99219-4.3555-21.516-30.375-58.648-28.023-70.832-26.25-21.262-29.598-54.305-40.195-76.703-40.195-3.125 0.13672-5.5898 2.7109-5.5898 5.8359 0 3.1289 2.4648 5.6992 5.5898 5.8359z"/>
        <path d="m466.06 518.86h7.2422-0.003906c8.8945 0.011719 17.441-3.4258 23.855-9.582 6.4141-6.1602 10.195-14.562 10.543-23.449 1.4453-33.906 5.9062-70.844 7.2305-81.363 9.6172-5.4766 18.172-12.637 25.254-21.141 1.0664-1.1758 1.6055-2.7344 1.5-4.3125-0.10547-1.582-0.85156-3.0547-2.0625-4.0742-1.2109-1.0234-2.7852-1.5078-4.3633-1.3438-1.5781 0.16016-3.0195 0.95703-3.9961 2.2031-6.7539 8.1367-15.051 14.859-24.414 19.777-1.6875 0.86328-2.8438 2.4961-3.1055 4.375-0.054687 0.44922-5.9844 44.996-7.6562 85.312-0.22656 5.8789-2.7227 11.441-6.9609 15.52-4.2422 4.0781-9.8945 6.3555-15.777 6.3555h-7.2422c-3.125 0.13281-5.5898 2.707-5.5898 5.832 0 3.1289 2.4648 5.7031 5.5898 5.8359z"/>
        <path d="m578.84 405.23c2.4688 2.0664 6.1484 1.7383 8.2109-0.73438 2.0664-2.4688 1.7383-6.1484-0.73047-8.2109-0.21875-0.19531-22.684-19.172-31.105-41.258-0.019532-0.042969-0.042969-0.089844-0.066407-0.13281 0.003907-0.046876 0.003907-0.09375 0-0.14063 0-0.085937-3.5781-8.5195-2.7891-21.688 0.19141-3.2188-2.2578-5.9844-5.4766-6.1758-3.2148-0.19141-5.9805 2.2578-6.1719 5.4727-0.94141 15.793 3.3477 26.129 3.7305 27.027 9.4922 24.797 33.379 44.988 34.398 45.84z"/>
        <path d="m412.21 118.12c3.2227-0.007812 5.832-2.6211 5.832-5.8398v-65.32c-0.13672-3.125-2.707-5.5859-5.8359-5.5859-3.1289 0-5.6992 2.4609-5.8359 5.5859v65.277c-0.011719 1.5547 0.59766 3.0508 1.6953 4.1562 1.0977 1.1055 2.5898 1.7266 4.1445 1.7266z"/>
        <path d="m387.1 179.76c-6.4727-0.97656-13.066-0.73437-19.449 0.71094-2.8555 0.71484-4.7344 3.4453-4.3789 6.3711 0.35547 2.9258 2.8359 5.125 5.7812 5.1367 0.47266-0.003906 0.94922-0.066406 1.4102-0.17578 8.5859-2.1875 17.676 0 17.75 0 2.3398 0.56641 4.7852-0.35156 6.168-2.3203 12.785-18.266 39.125-23.57 39.453-23.637 3.1641-0.60156 5.2422-3.6562 4.6367-6.8242-0.60156-3.1641-3.6602-5.2422-6.8242-4.6367-1.2148 0.23047-28.516 5.6328-44.547 25.375z"/>
        <path d="m541.47 244.09c0.51953-3.1836-1.6367-6.1797-4.8203-6.6992-3.1797-0.51953-6.1797 1.6367-6.6992 4.8164 0 0.33984-5.8398 34.223-30.547 59.523-9.7617 9.8359-22.641 15.969-36.434 17.344-17.402 2-34.961 2.2383-52.41 0.71094-17.094-1.3672-25.734-6.8242-35.711-16.406-9.3828-9.0352-16.066-18.594-19.875-28.285 0-0.097656-0.097656-0.1875-0.14062-0.28516v-23.523c-0.13672-3.125-2.7109-5.5898-5.8359-5.5898-3.1289 0-5.6992 2.4648-5.8359 5.5898v24.816c-4.0391 10.25-10.172 19.543-18.016 27.277-9.9766 9.582-18.594 15.039-35.711 16.406-17.449 1.5273-35.008 1.2891-52.41-0.71094-13.793-1.375-26.672-7.5078-36.434-17.344-24.5-25.094-30.449-58.922-30.547-59.523-0.51953-3.1797-3.5195-5.3359-6.6992-4.8164-3.1836 0.51953-5.3398 3.5156-4.8203 6.6992 0.25 1.543 6.4648 37.887 33.711 65.789 11.668 11.77 27.062 19.117 43.551 20.781 10.129 1.1641 20.312 1.7812 30.508 1.8359 7.25 0 15.117-0.30469 24.062-1.0156 20.387-1.6406 31.523-8.75 42.863-19.633 6.4805-6.332 11.938-13.629 16.176-21.637 4.7656 7.9727 10.605 15.254 17.359 21.637 11.344 10.938 22.477 17.992 42.863 19.633 8.9688 0.71094 16.82 1.0156 24.062 1.0156 10.195-0.03125 20.383-0.62109 30.516-1.7617 16.484-1.6641 31.879-9.0117 43.543-20.781 27.266-27.977 33.477-64.324 33.73-65.863z"/>
        <path d="m502.03 365.66c1.3359-2.8633 0.15625-6.2656-2.6602-7.6875-2.8164-1.4219-6.2578-0.34766-7.7617 2.4258-0.41406 0.79688-10.555 19.535-42.875 19.535-1.5938-0.070312-3.1445 0.51172-4.293 1.6172-1.1523 1.1016-1.8008 2.625-1.8008 4.2148 0 1.5938 0.64844 3.1172 1.8008 4.2188 1.1484 1.1016 2.6992 1.6875 4.293 1.6172 39.887-0.042969 52.781-24.883 53.297-25.941z"/>
        <path d="m467.64 402.17c-0.066406 0.13281-7.3945 13.453-26.645 12.809-3.1602-0.015625-5.7617 2.4883-5.8633 5.6484-0.10547 3.1602 2.3242 5.8281 5.4805 6.0195h1.7383c25.156 0 35.164-18.211 35.578-19.008h0.003906c0.77344-1.3672 0.96484-2.9961 0.52734-4.5039-0.44141-1.5117-1.4727-2.7812-2.8633-3.5195-1.3906-0.74219-3.0195-0.88672-4.5195-0.40234-1.5 0.48047-2.7383 1.5469-3.4375 2.957z"/>
        <path d="m463.75 439.26c-2.5195-2.0117-6.1914-1.5977-8.2031 0.91797-3.3203 3.9336-7.0664 7.4805-11.18 10.578-5.918 4.5-9.4062 11.504-9.4258 18.941v37.492l-169.91 0.003906v-37.496c-0.023438-7.4375-3.5078-14.441-9.4297-18.941-4.1055-3.1094-7.8594-6.6602-11.188-10.59-2.0156-2.5117-5.6836-2.918-8.1992-0.90234-2.5117 2.0156-2.918 5.6836-0.90234 8.1992 3.9219 4.6875 8.3672 8.918 13.246 12.598 3.0156 2.2891 4.7891 5.8516 4.8008 9.6367v43.336c0 1.5469 0.61719 3.0312 1.7109 4.125 1.0977 1.0938 2.582 1.707 4.1289 1.7031h181.59c1.5469 0.003907 3.0352-0.60938 4.1289-1.7031 1.0977-1.0938 1.7109-2.5781 1.7109-4.125v-43.336c0.015625-3.7852 1.7891-7.3438 4.8008-9.6367 4.8789-3.6875 9.3281-7.9141 13.258-12.598 2.0078-2.5234 1.5898-6.1953-0.92969-8.2031z"/>
        <path d="m406.41 434.64c-1.043-3.043-4.3477-4.668-7.3945-3.6406-0.17578 0.066406-17.359 5.7422-34.07-1.4648-2.9609-1.2773-6.3945 0.089844-7.668 3.0508-1.2734 2.9609 0.089843 6.3906 3.0508 7.668 7.3594 3.1055 15.277 4.6758 23.266 4.6133 6.5117 0.042968 12.992-0.91016 19.215-2.832 1.4609-0.5 2.6602-1.5625 3.3359-2.9492 0.67188-1.3867 0.76953-2.9883 0.26562-4.4453z"/>
        <path d="m399.01 478.91c-0.17578 0.066406-17.359 5.7305-34.07-1.4648-2.9609-1.2773-6.3945 0.089844-7.668 3.0508-1.2734 2.9609 0.089843 6.3906 3.0508 7.668 7.3594 3.1055 15.277 4.6758 23.266 4.6133 6.5078 0.0625 12.992-0.875 19.215-2.7773 2.9141-1.1445 4.4062-4.3789 3.3867-7.3359-1.0156-2.957-4.1836-4.5898-7.1797-3.6992z"/>
        <path d="m114.05 158.16c2.6289 1.8594 6.2695 1.2383 8.1289-1.3906 20.957-29.531 62.344-21.066 62.758-20.977 2.3555 0.51563 4.7852-0.46875 6.1133-2.4844 18.586-28.129 48.859-38.148 69.148-38.148 3.125-0.13672 5.5898-2.707 5.5898-5.8359 0-3.125-2.4648-5.6992-5.5898-5.8359-22.398 0-55.441 10.598-76.703 40.195-12.184-1.7188-49.316-4.0703-70.832 26.25-0.92578 1.2695-1.3008 2.8594-1.0391 4.4062 0.26172 1.5469 1.1367 2.9258 2.4258 3.8203z"/>
        <path d="m192.3 485.83c0.34766 8.8867 4.1289 17.289 10.543 23.449 6.4141 6.1562 14.961 9.5938 23.855 9.582h7.2422-0.003906c3.125-0.13281 5.5898-2.707 5.5898-5.8359 0-3.125-2.4648-5.6992-5.5898-5.832h-7.2422 0.003906c-5.8828 0-11.539-2.2773-15.781-6.3555-4.2383-4.0781-6.7344-9.6406-6.9609-15.52-1.7188-40.359-7.6562-84.906-7.6562-85.312-0.25781-1.8789-1.418-3.5117-3.1055-4.375-9.3633-4.918-17.66-11.641-24.41-19.777-2.1133-2.332-5.6914-2.5703-8.0977-0.54297-2.4023 2.0273-2.7695 5.5938-0.82812 8.0703 7.082 8.5039 15.637 15.664 25.254 21.141 1.2812 10.469 5.7422 47.414 7.1875 81.309z"/>
        <path d="m159.34 332.37c-0.19141-3.2148-2.957-5.6641-6.1719-5.4727-3.2188 0.19141-5.668 2.957-5.4766 6.1758 0.77734 13.125-2.7109 21.516-2.8008 21.711-0.085938 0.19531 0 0.085938 0 0.13281 0 0.042969 0 0.078126-0.054688 0.12109-8.3906 22.008-30.887 41.07-31.117 41.258l0.003906-0.003907c-2.4727 2.0664-2.7969 5.7461-0.73047 8.2188 2.0703 2.4688 5.75 2.7969 8.2227 0.72656 1.0156-0.85156 24.938-21.066 34.465-45.883 0.43359-1.1367 4.5898-11.406 3.6602-26.984z"/>
        <path d="m287.79 118.12c3.2227 0 5.8398-2.6133 5.8398-5.8398v-65.32c-0.13672-3.125-2.707-5.5859-5.8359-5.5859-3.1289 0-5.6992 2.4609-5.8359 5.5859v65.277c-0.011719 1.5547 0.59766 3.0469 1.6914 4.1523s2.5859 1.7266 4.1406 1.7305z"/>
        <path d="m261.54 159.01c-0.60937 3.168 1.4609 6.2266 4.625 6.8359 0.26172 0.054688 26.656 5.3477 39.453 23.637 1.3867 1.957 3.8242 2.875 6.1562 2.3203 0.085937 0 9.1641-2.1875 17.762 0 0.46094 0.10938 0.9375 0.17188 1.4102 0.17578 2.9453-0.011718 5.4258-2.2109 5.7812-5.1367 0.35547-2.9258-1.5234-5.6562-4.3789-6.3711-6.3828-1.4453-12.977-1.6875-19.449-0.71094-16.035-19.688-43.336-25.156-44.547-25.375-3.1602-0.60156-6.207 1.4688-6.8125 4.625z"/>
        <path d="m257.09 385.77c0-1.5469-0.61719-3.0312-1.7109-4.125-1.0977-1.0938-2.582-1.707-4.1289-1.7031-32.254 0-42.414-18.66-42.875-19.535-1.5078-2.7734-4.9453-3.8477-7.7656-2.4258-2.8164 1.4219-3.9961 4.8242-2.6602 7.6875 0.53516 1.0938 13.43 25.945 53.297 25.945l0.003906-0.003906c3.2266 0 5.8398-2.6133 5.8398-5.8398z"/>
        <path d="m257.64 426.67h1.7383c3.1562-0.19141 5.5859-2.8633 5.4805-6.0195-0.10156-3.1602-2.7031-5.6641-5.8633-5.6523-18.945 0.64453-26.316-12.227-26.664-12.852-1.5312-2.8359-5.0664-3.8945-7.9023-2.3672-2.8359 1.5273-3.8984 5.0664-2.3711 7.9023 0.42969 0.77734 10.445 18.988 35.582 18.988z"/>
        <path d="m368.59 371.66c13.496 16.309 28.602 17.074 29.246 17.094h0.23047c3.1367-0.0625 5.6641-2.5938 5.7227-5.7266 0.058593-3.1367-2.3711-5.7617-5.5039-5.9414-0.10937 0-10.664-0.73438-20.703-12.875-12.883-15.562-25.68-16.156-28.023-16.109-2.3398 0.042969-15.125 0.54688-28.023 16.109-9.9219 12.031-20.203 12.84-20.781 12.875-3.1172 0.26953-5.4648 2.9492-5.3281 6.0742 0.13672 3.1289 2.7148 5.5898 5.8438 5.5859 0.63281 0 15.75-0.78906 29.246-17.094 9.7344-11.77 18.516-11.879 18.781-11.891h0.49219s9.0352 0.085938 18.801 11.898z"/>
        <path d="m342.73 432.59c-1.2773-2.9531-4.6992-4.3164-7.6562-3.0508-16.648 7.1758-33.766 1.5742-34.059 1.4648-3.0078-0.92188-6.2031 0.70703-7.2305 3.6797-1.0234 2.9727 0.48828 6.2266 3.4219 7.3555 6.2266 1.9219 12.707 2.875 19.219 2.832 7.9883 0.0625 15.906-1.5078 23.266-4.6133 1.4219-0.61328 2.543-1.7656 3.1133-3.2031 0.57031-1.4375 0.54297-3.0469-0.074219-4.4648z"/>
        <path d="m335.06 477.45c-16.711 7.1953-33.906 1.5312-34.07 1.4648-3.0625-1.0469-6.3945 0.58594-7.4414 3.6484s0.58594 6.3945 3.6484 7.4414c6.2227 1.9219 12.703 2.875 19.215 2.832 7.9883 0.0625 15.906-1.5078 23.266-4.6133 2.9609-1.2773 4.3242-4.707 3.0508-7.668-1.2734-2.9609-4.707-4.3281-7.668-3.0508z"/>
        <path d="m378.21 97.848c0.74219 0.32812 1.543 0.5 2.3516 0.50391 2.3125-0.003906 4.4102-1.3672 5.3477-3.4805 1.6836-3.8164 3.3477-8.0703 4.9453-12.656v0.003906c1.0625-3.043-0.53906-6.3711-3.582-7.4336s-6.3672 0.53906-7.4336 3.582c-1.5 4.2891-3.0508 8.2578-4.6172 11.789h0.003906c-1.293 2.9492 0.039063 6.3867 2.9844 7.6914z"/>
        <path d="m345.14 124.01c2.7031 2.1406 6.0547 3.2969 9.5039 3.2812 4.6055 0 10.172-1.957 15.883-7.9414v0.003906c2.2227-2.332 2.1328-6.0273-0.19922-8.25-2.332-2.2227-6.0234-2.1328-8.2461 0.19922-5.5352 5.7852-8.75 4.2344-9.582 3.6953-0.13672-0.12891-0.28906-0.24219-0.44922-0.33984-28.918-20.246-35.188-60.254-35.25-60.66v0.003906c-0.55859-3.1055-3.4805-5.2031-6.6016-4.7422-3.1211 0.46094-5.3086 3.3125-4.9492 6.4453 0.27344 1.7852 6.9688 45.098 39.891 68.305z"/>
        <path d="m355.12 395.94c0-3.2266-2.6133-5.8398-5.8398-5.8398-3.2266 0-5.8398 2.6133-5.8398 5.8398v16.91c0.13672 3.125 2.707 5.5859 5.8359 5.5859 3.125 0 5.6992-2.4609 5.8359-5.5859z"/>
        <path d="m349.29 442.84c-3.2227 0-5.8359 2.6094-5.8398 5.832v16.91c-0.070313 1.5898 0.51562 3.1406 1.6172 4.2891 1.1016 1.1523 2.625 1.8008 4.2188 1.8008 1.5898 0 3.1133-0.64844 4.2148-1.8008 1.1055-1.1484 1.6875-2.6992 1.6172-4.2891v-16.91c0-3.2188-2.6094-5.832-5.8281-5.832z"/>
        <use x="70" y="576.40625" xlink:href="#v"/>
        <use x="74.011719" y="576.40625" xlink:href="#d"/>
        <use x="76.710938" y="576.40625" xlink:href="#a"/>
        <use x="80.417969" y="576.40625" xlink:href="#e"/>
        <use x="84.109375" y="576.40625" xlink:href="#c"/>
        <use x="86.722656" y="576.40625" xlink:href="#a"/>
        <use x="90.433594" y="576.40625" xlink:href="#k"/>
        <use x="96.25" y="576.40625" xlink:href="#j"/>
        <use x="100.167969" y="576.40625" xlink:href="#i"/>
        <use x="105.636719" y="576.40625" xlink:href="#h"/>
        <use x="111.078125" y="576.40625" xlink:href="#e"/>
        <use x="114.765625" y="576.40625" xlink:href="#u"/>
        <use x="118.292969" y="576.40625" xlink:href="#t"/>
        <use x="120.167969" y="576.40625" xlink:href="#g"/>
        <use x="123.410156" y="576.40625" xlink:href="#b"/>
        <use x="127.167969" y="576.40625" xlink:href="#f"/>
        <use x="131.0625" y="576.40625" xlink:href="#s"/>
        <use x="70" y="581.875" xlink:href="#r"/>
        <use x="72.378906" y="581.875" xlink:href="#d"/>
        <use x="75.078125" y="581.875" xlink:href="#b"/>
        <use x="78.832031" y="581.875" xlink:href="#q"/>
        <use x="86.4375" y="581.875" xlink:href="#c"/>
        <use x="89.050781" y="581.875" xlink:href="#p"/>
        <use x="92.941406" y="581.875" xlink:href="#a"/>
        <use x="98.554688" y="581.875" xlink:href="#o"/>
        <use x="103.132812" y="581.875" xlink:href="#b"/>
        <use x="106.890625" y="581.875" xlink:href="#n"/>
        <use x="110.785156" y="581.875" xlink:href="#f"/>
        <use x="116.582031" y="581.875" xlink:href="#m"/>
        <use x="120.589844" y="581.875" xlink:href="#d"/>
        <use x="123.285156" y="581.875" xlink:href="#b"/>
        <use x="127.042969" y="581.875" xlink:href="#l"/>
        <use x="128.917969" y="581.875" xlink:href="#a"/>
        <use x="132.625" y="581.875" xlink:href="#g"/>
        <use x="135.867188" y="581.875" xlink:href="#c"/>
    </g>
</svg>
